<svg width="108" height="52" viewBox="0 0 108 52" fill="none" xmlns="http://www.w3.org/2000/svg">
<path d="M4.125 21.5117C3.28516 21.5117 2.59961 21.3535 2.06836 21.0371C1.53711 20.7207 1.14648 20.293 0.896484 19.7539C0.650391 19.2188 0.527344 18.6172 0.527344 17.9492C0.527344 17.5898 0.564453 17.1914 0.638672 16.7539C0.712891 16.3164 0.837891 15.8594 1.01367 15.3828L2.25 15.8633C2.12109 16.2695 2.02148 16.6484 1.95117 17C1.88086 17.3516 1.8457 17.6582 1.8457 17.9199C1.8457 18.3145 1.91406 18.6738 2.05078 18.998C2.19141 19.3262 2.42773 19.5879 2.75977 19.7832C3.0918 19.9785 3.54688 20.0762 4.125 20.0762C4.73438 20.0762 5.23438 20.0078 5.625 19.8711C6.01953 19.7344 6.31055 19.5781 6.49805 19.4023C6.68945 19.2266 6.78516 19.0801 6.78516 18.9629C6.78516 18.8105 6.71289 18.6953 6.56836 18.6172C6.42383 18.5391 6.19531 18.5 5.88281 18.5H4.98047C4.85156 18.5 4.76758 18.4629 4.72852 18.3887C4.68945 18.3105 4.65039 18.209 4.61133 18.084L4.39453 17.3047C4.37109 17.2188 4.36914 17.1543 4.38867 17.1113C4.4082 17.0684 4.46875 17.0469 4.57031 17.0469H7.99219V18.5H7.93359C7.97266 18.5938 7.99609 18.6738 8.00391 18.7402C8.01562 18.8066 8.02148 18.8789 8.02148 18.957C8.02148 19.2773 7.9375 19.5898 7.76953 19.8945C7.60156 20.1992 7.35352 20.4727 7.02539 20.7148C6.69727 20.9609 6.29102 21.1543 5.80664 21.2949C5.32227 21.4395 4.76172 21.5117 4.125 21.5117ZM7.76953 17.041H8.18555V18.5H7.76953V17.041ZM10.3594 11.5918L11.291 12.5176L10.3594 13.4551L9.42773 12.5176L10.3594 11.5918ZM8.39062 11.5918L9.32812 12.5176L8.39062 13.4551L7.46484 12.5176L8.39062 11.5918ZM9.75586 14.5684L11.0391 14.416L11.1504 15.9746C11.1621 16.1895 11.207 16.3789 11.2852 16.543C11.3633 16.7031 11.4746 16.8262 11.6191 16.9121C11.7676 16.998 11.9551 17.041 12.1816 17.041H12.2988V18.5H12.1699C11.9004 18.5 11.6602 18.4668 11.4492 18.4004C11.2383 18.334 11.0527 18.2402 10.8926 18.1191C10.7363 17.998 10.5996 17.8555 10.4824 17.6914C10.2598 17.9531 9.98047 18.1543 9.64453 18.2949C9.3125 18.4316 8.96094 18.5 8.58984 18.5H8.0332V17.041H8.58984C9.04688 17.041 9.36523 16.9355 9.54492 16.7246C9.72461 16.5098 9.81445 16.1934 9.81445 15.7754C9.81445 15.5605 9.80859 15.3535 9.79688 15.1543C9.78906 14.9551 9.77539 14.7598 9.75586 14.5684ZM12.0586 17.041H12.5273V18.5H12.0586V17.041ZM14.1855 19.3203L15.1172 20.2461L14.1855 21.1836L13.2539 20.2461L14.1855 19.3203ZM12.2168 19.3203L13.1543 20.2461L12.2168 21.1836L11.291 20.2461L12.2168 19.3203ZM14.1094 14.5684L15.3926 14.416L15.5039 15.9746C15.5156 16.1895 15.5605 16.3789 15.6387 16.543C15.7168 16.7031 15.8281 16.8262 15.9727 16.9121C16.1211 16.998 16.3086 17.041 16.5352 17.041H16.6523V18.5H16.5234C16.2539 18.5 16.0137 18.4668 15.8027 18.4004C15.5918 18.334 15.4062 18.2402 15.2461 18.1191C15.0898 17.998 14.9531 17.8555 14.8359 17.6914C14.6133 17.9531 14.334 18.1543 13.998 18.2949C13.666 18.4316 13.3145 18.5 12.9434 18.5H12.3867V17.041H12.9434C13.4004 17.041 13.7188 16.9355 13.8984 16.7246C14.0781 16.5098 14.168 16.1934 14.168 15.7754C14.168 15.5605 14.1621 15.3535 14.1504 15.1543C14.1426 14.9551 14.1289 14.7598 14.1094 14.5684ZM20.4551 18.5C20.0371 18.5 19.6992 18.4297 19.4414 18.2891C19.1836 18.1445 18.9746 17.9492 18.8145 17.7031C18.6113 17.9531 18.3535 18.1484 18.041 18.2891C17.7324 18.4297 17.3359 18.5 16.8516 18.5H16.4414V17.041H16.8633C17.3203 17.041 17.6582 16.9531 17.877 16.7773C18.0957 16.5977 18.2051 16.2891 18.2051 15.8516C18.2051 15.7891 18.2012 15.7012 18.1934 15.5879C18.1895 15.4746 18.1816 15.3457 18.1699 15.2012C18.1621 15.0527 18.1504 14.9023 18.1348 14.75L19.4238 14.5918L19.5352 16.0098C19.5469 16.2012 19.5879 16.375 19.6582 16.5312C19.7324 16.6875 19.8359 16.8125 19.9688 16.9062C20.1016 16.9961 20.2676 17.041 20.4668 17.041C20.8262 17.041 21.082 16.9355 21.2344 16.7246C21.3867 16.5137 21.4629 16.2227 21.4629 15.8516C21.4629 15.7891 21.459 15.7012 21.4512 15.5879C21.4473 15.4746 21.4395 15.3457 21.4277 15.2012C21.4199 15.0527 21.4082 14.9023 21.3926 14.75L22.6816 14.5918L22.793 16.0098C22.8047 16.1895 22.8398 16.3594 22.8984 16.5195C22.957 16.6758 23.0449 16.8027 23.1621 16.9004C23.2832 16.9941 23.4355 17.041 23.6191 17.041C23.791 17.041 23.9297 16.9902 24.0352 16.8887C24.1406 16.7871 24.2168 16.6523 24.2637 16.4844C24.3105 16.3125 24.334 16.123 24.334 15.916C24.334 15.6621 24.3027 15.373 24.2402 15.0488C24.1816 14.7246 24.1133 14.4121 24.0352 14.1113L25.3594 13.7598C25.4531 14.0996 25.5234 14.4395 25.5703 14.7793C25.6172 15.1152 25.6406 15.4492 25.6406 15.7812C25.6406 16.2734 25.5781 16.7266 25.4531 17.1406C25.3281 17.5508 25.1191 17.8789 24.8262 18.125C24.5332 18.3711 24.1367 18.4961 23.6367 18.5C23.2773 18.5 22.9746 18.4258 22.7285 18.2773C22.4824 18.1289 22.2812 17.9355 22.125 17.6973C21.918 17.9473 21.6699 18.1445 21.3809 18.2891C21.0957 18.4297 20.7871 18.5 20.4551 18.5ZM30.0645 10.2793H31.4414V15.7871C31.4414 16.2559 31.5156 16.582 31.6641 16.7656C31.8125 16.9492 32.082 17.041 32.4727 17.041H32.6133V18.5H32.4727C31.6484 18.5 31.041 18.2852 30.6504 17.8555C30.2598 17.4219 30.0645 16.7617 30.0645 15.875V10.2793ZM32.6484 18.5H32.4023L32.4082 17.041H32.6191C32.8379 17.041 33.0273 16.9668 33.1875 16.8184C33.3516 16.6699 33.5039 16.4766 33.6445 16.2383C33.7891 16 33.9355 15.75 34.084 15.4883C34.2363 15.2227 34.4062 14.9707 34.5938 14.7324C34.7812 14.4941 35.002 14.3008 35.2559 14.1523C35.5137 14.0039 35.8203 13.9297 36.1758 13.9297C36.6055 13.9297 36.9766 14.0195 37.2891 14.1992C37.6016 14.3789 37.8535 14.6211 38.0449 14.9258C38.2402 15.2305 38.373 15.5742 38.4434 15.957C38.4941 16.2148 38.5645 16.4238 38.6543 16.584C38.7441 16.7441 38.8477 16.8613 38.9648 16.9355C39.0859 17.0059 39.2148 17.041 39.3516 17.041H39.5039V18.5H39.3457C39.0957 18.5 38.8496 18.4453 38.6074 18.3359C38.3652 18.2227 38.1719 18.0742 38.0273 17.8906C37.8438 18.1367 37.6309 18.3223 37.3887 18.4473C37.1504 18.5723 36.8535 18.6348 36.498 18.6348C36.2324 18.6348 35.9785 18.5957 35.7363 18.5176C35.498 18.4395 35.2637 18.3301 35.0332 18.1895C34.8066 18.0449 34.5781 17.877 34.3477 17.6855C34.1992 17.8457 34.0488 17.9863 33.8965 18.1074C33.748 18.2285 33.5762 18.3242 33.3809 18.3945C33.1855 18.4648 32.9414 18.5 32.6484 18.5ZM36.2168 15.3242C36.041 15.3242 35.8828 15.3828 35.7422 15.5C35.6016 15.6172 35.4766 15.7617 35.3672 15.9336C35.2617 16.1055 35.168 16.2754 35.0859 16.4434C35.2109 16.5645 35.332 16.6699 35.4492 16.7598C35.5664 16.8457 35.6777 16.9199 35.7832 16.9824C35.9238 17.0605 36.0547 17.1172 36.1758 17.1523C36.2969 17.1875 36.4043 17.2051 36.498 17.2051C36.7402 17.2051 36.9141 17.1309 37.0195 16.9824C37.1289 16.834 37.1836 16.6465 37.1836 16.4199C37.1836 16.1113 37.0977 15.8516 36.9258 15.6406C36.7578 15.4297 36.5215 15.3242 36.2168 15.3242ZM40.998 14.5684L42.2812 14.416L42.3926 15.9746C42.4043 16.1895 42.4492 16.3789 42.5273 16.543C42.6055 16.7031 42.7168 16.8262 42.8613 16.9121C43.0098 16.998 43.1973 17.041 43.4238 17.041H43.541V18.5H43.4121C43.1426 18.5 42.9023 18.4668 42.6914 18.4004C42.4805 18.334 42.2949 18.2402 42.1348 18.1191C41.9785 17.998 41.8418 17.8555 41.7246 17.6914C41.502 17.9531 41.2227 18.1543 40.8867 18.2949C40.5547 18.4316 40.2031 18.5 39.832 18.5H39.2754V17.041H39.832C40.2891 17.041 40.6074 16.9355 40.7871 16.7246C40.9668 16.5098 41.0566 16.1934 41.0566 15.7754C41.0566 15.5605 41.0508 15.3535 41.0391 15.1543C41.0312 14.9551 41.0176 14.7598 40.998 14.5684ZM41.2441 11.5508L42.2227 12.5293L41.2441 13.502L40.2715 12.5293L41.2441 11.5508ZM43.3008 17.041H43.7695V18.5H43.3008V17.041ZM45.4277 19.3203L46.3594 20.2461L45.4277 21.1836L44.4961 20.2461L45.4277 19.3203ZM43.459 19.3203L44.3965 20.2461L43.459 21.1836L42.5332 20.2461L43.459 19.3203ZM45.3516 14.5684L46.6348 14.416L46.7461 15.9746C46.7578 16.1895 46.8027 16.3789 46.8809 16.543C46.959 16.7031 47.0703 16.8262 47.2148 16.9121C47.3633 16.998 47.5508 17.041 47.7773 17.041H47.8945V18.5H47.7656C47.4961 18.5 47.2559 18.4668 47.0449 18.4004C46.834 18.334 46.6484 18.2402 46.4883 18.1191C46.332 17.998 46.1953 17.8555 46.0781 17.6914C45.8555 17.9531 45.5762 18.1543 45.2402 18.2949C44.9082 18.4316 44.5566 18.5 44.1855 18.5H43.6289V17.041H44.1855C44.6426 17.041 44.9609 16.9355 45.1406 16.7246C45.3203 16.5098 45.4102 16.1934 45.4102 15.7754C45.4102 15.5605 45.4043 15.3535 45.3926 15.1543C45.3848 14.9551 45.3711 14.7598 45.3516 14.5684ZM51.6973 18.5C51.2793 18.5 50.9414 18.4297 50.6836 18.2891C50.4258 18.1445 50.2168 17.9492 50.0566 17.7031C49.8535 17.9531 49.5957 18.1484 49.2832 18.2891C48.9746 18.4297 48.5781 18.5 48.0938 18.5H47.6836V17.041H48.1055C48.5625 17.041 48.9004 16.9531 49.1191 16.7773C49.3379 16.5977 49.4473 16.2891 49.4473 15.8516C49.4473 15.7891 49.4434 15.7012 49.4355 15.5879C49.4316 15.4746 49.4238 15.3457 49.4121 15.2012C49.4043 15.0527 49.3926 14.9023 49.377 14.75L50.666 14.5918L50.7773 16.0098C50.7891 16.2012 50.8301 16.375 50.9004 16.5312C50.9746 16.6875 51.0781 16.8125 51.2109 16.9062C51.3438 16.9961 51.5098 17.041 51.709 17.041C52.0684 17.041 52.3242 16.9355 52.4766 16.7246C52.6289 16.5137 52.7051 16.2227 52.7051 15.8516C52.7051 15.7891 52.7012 15.7012 52.6934 15.5879C52.6895 15.4746 52.6816 15.3457 52.6699 15.2012C52.6621 15.0527 52.6504 14.9023 52.6348 14.75L53.9238 14.5918L54.0352 16.0098C54.0469 16.1895 54.082 16.3594 54.1406 16.5195C54.1992 16.6758 54.2871 16.8027 54.4043 16.9004C54.5254 16.9941 54.6777 17.041 54.8613 17.041C55.0332 17.041 55.1719 16.9902 55.2773 16.8887C55.3828 16.7871 55.459 16.6523 55.5059 16.4844C55.5527 16.3125 55.5762 16.123 55.5762 15.916C55.5762 15.6621 55.5449 15.373 55.4824 15.0488C55.4238 14.7246 55.3555 14.4121 55.2773 14.1113L56.6016 13.7598C56.6953 14.0996 56.7656 14.4395 56.8125 14.7793C56.8594 15.1152 56.8828 15.4492 56.8828 15.7812C56.8828 16.2734 56.8203 16.7266 56.6953 17.1406C56.5703 17.5508 56.3613 17.8789 56.0684 18.125C55.7754 18.3711 55.3789 18.4961 54.8789 18.5C54.5195 18.5 54.2168 18.4258 53.9707 18.2773C53.7246 18.1289 53.5234 17.9355 53.3672 17.6973C53.1602 17.9473 52.9121 18.1445 52.623 18.2891C52.3379 18.4297 52.0293 18.5 51.6973 18.5Z" fill="white"/>
<rect x="68" width="40" height="32" rx="4" fill="#DF2144"/>
<path d="M2.06934 43.8574C2.61947 43.8574 3.07438 43.8109 3.43408 43.7178C3.79378 43.6204 4.0625 43.4787 4.24023 43.2925C4.41797 43.1063 4.50684 42.8735 4.50684 42.5942C4.50684 42.3276 4.41797 42.0526 4.24023 41.769C4.0625 41.4855 3.78109 41.1893 3.396 40.8804C3.0109 40.5672 2.50521 40.2393 1.87891 39.8965L2.38037 38.8936C2.92204 39.1729 3.39388 39.4585 3.7959 39.7505C4.20215 40.0425 4.53646 40.3429 4.79883 40.6519C5.06543 40.9608 5.26432 41.276 5.39551 41.5977C5.52669 41.915 5.59229 42.2409 5.59229 42.5752C5.59229 43.1042 5.47168 43.5485 5.23047 43.9082C4.98926 44.2679 4.61686 44.5387 4.11328 44.7207C3.6097 44.8984 2.96012 44.9873 2.16455 44.9873C1.88949 44.9873 1.62077 44.9746 1.3584 44.9492C1.10026 44.9238 0.856934 44.8857 0.628418 44.835V43.686C0.903483 43.741 1.15951 43.7834 1.39648 43.813C1.6377 43.8426 1.86198 43.8574 2.06934 43.8574ZM8.98828 40.2964C9.33529 40.2964 9.65055 40.3747 9.93408 40.5312C10.2218 40.6836 10.4715 40.9121 10.6831 41.2168C10.8947 41.5173 11.0576 41.8875 11.1719 42.3276C11.2904 42.7677 11.3538 43.2734 11.3623 43.8447H12.124V45H11.2607C11.1676 45.4867 10.9814 45.9564 10.7021 46.4092C10.4271 46.8662 10.0166 47.2682 9.4707 47.6152C8.9248 47.9665 8.20117 48.2288 7.2998 48.4023L6.92529 47.3931C7.56429 47.2703 8.1123 47.1011 8.56934 46.8853C9.0306 46.6694 9.40088 46.4049 9.68018 46.0918C9.9637 45.7786 10.1562 45.4147 10.2578 45H9.25488C8.45085 45 7.84782 44.8392 7.4458 44.5176C7.04801 44.1917 6.84912 43.703 6.84912 43.0513C6.84912 42.7254 6.89355 42.3996 6.98242 42.0737C7.07129 41.7479 7.20459 41.4517 7.38232 41.1851C7.56429 40.9142 7.78857 40.6984 8.05518 40.5376C8.32178 40.3768 8.63281 40.2964 8.98828 40.2964ZM9.19141 43.8447H10.3149C10.2896 43.4385 10.243 43.0851 10.1753 42.7847C10.1076 42.48 10.0187 42.2282 9.90869 42.0293C9.79867 41.8304 9.66536 41.6823 9.50879 41.585C9.35221 41.4876 9.17236 41.439 8.96924 41.439C8.6984 41.439 8.4847 41.5321 8.32812 41.7183C8.17578 41.9002 8.06787 42.1139 8.00439 42.3594C7.94515 42.6048 7.91553 42.8228 7.91553 43.0132C7.91553 43.3094 8.01497 43.5231 8.21387 43.6543C8.41699 43.7812 8.74284 43.8447 9.19141 43.8447ZM13.7046 42.2197V36.1958H14.79V42.2388C14.79 42.5477 14.8281 42.8249 14.9043 43.0703C14.9805 43.3115 15.1117 43.502 15.2979 43.6416C15.484 43.777 15.7401 43.8447 16.0659 43.8447H16.2563V45H16.0786C15.7612 45 15.4883 44.964 15.2598 44.8921C15.0355 44.8159 14.8429 44.7059 14.6821 44.562C14.5256 44.4181 14.3923 44.2425 14.2822 44.0352C14.1426 44.2425 14.0008 44.4181 13.8569 44.562C13.7173 44.7059 13.5374 44.8159 13.3174 44.8921C13.1016 44.964 12.8053 45 12.4287 45H11.8955V43.8447H12.416C12.7715 43.8447 13.0402 43.7749 13.2222 43.6353C13.4084 43.4914 13.5353 43.2967 13.603 43.0513C13.6707 42.8058 13.7046 42.5286 13.7046 42.2197ZM16.7324 45H16.0342V43.8447H16.7197C17.2868 43.8447 17.6655 43.722 17.856 43.4766C18.0506 43.2269 18.1479 42.8905 18.1479 42.4673C18.1479 42.2303 18.1247 41.9362 18.0781 41.585C18.0316 41.2337 17.9596 40.8846 17.8623 40.5376L18.9478 40.2456C19.0493 40.5799 19.1213 40.9396 19.1636 41.3247C19.2059 41.7098 19.2271 42.0568 19.2271 42.3657C19.2271 42.8735 19.1572 43.3263 19.0176 43.7241C18.8822 44.1177 18.6346 44.4287 18.2749 44.6572C17.9152 44.8857 17.401 45 16.7324 45ZM17.8306 37.4146L18.751 38.335L17.8306 39.2554L16.9102 38.335L17.8306 37.4146ZM21.9058 36.1958V44.9937H20.8203V36.1958H21.9058ZM24.9463 43.8574C25.4964 43.8574 25.9513 43.8109 26.311 43.7178C26.6707 43.6204 26.9395 43.4787 27.1172 43.2925C27.2949 43.1063 27.3838 42.8735 27.3838 42.5942C27.3838 42.3276 27.2949 42.0526 27.1172 41.769C26.9395 41.4855 26.658 41.1893 26.2729 40.8804C25.8879 40.5672 25.3822 40.2393 24.7559 39.8965L25.2573 38.8936C25.799 39.1729 26.2708 39.4585 26.6729 39.7505C27.0791 40.0425 27.4134 40.3429 27.6758 40.6519C27.9424 40.9608 28.1413 41.276 28.2725 41.5977C28.4036 41.915 28.4692 42.2409 28.4692 42.5752C28.4692 43.1042 28.3486 43.5485 28.1074 43.9082C27.8662 44.2679 27.4938 44.5387 26.9902 44.7207C26.4867 44.8984 25.8371 44.9873 25.0415 44.9873C24.7664 44.9873 24.4977 44.9746 24.2354 44.9492C23.9772 44.9238 23.7339 44.8857 23.5054 44.835V43.686C23.7804 43.741 24.0365 43.7834 24.2734 43.813C24.5146 43.8426 24.7389 43.8574 24.9463 43.8574ZM37.7368 43.9146C37.7368 44.7355 37.5845 45.4486 37.2798 46.0537C36.9793 46.6631 36.5265 47.1624 35.9214 47.5518C35.3205 47.9453 34.5693 48.2288 33.668 48.4023L33.2935 47.3931C33.9451 47.2661 34.508 47.0863 34.9819 46.8535C35.4601 46.6208 35.841 46.333 36.1245 45.9902C36.408 45.6517 36.5837 45.2645 36.6514 44.8286C36.4906 44.8794 36.3044 44.9238 36.0928 44.9619C35.8812 45 35.695 45.019 35.5342 45.019C34.7725 45.019 34.1948 44.8561 33.8013 44.5303C33.4119 44.2044 33.2173 43.7114 33.2173 43.0513C33.2173 42.7254 33.2617 42.3996 33.3506 42.0737C33.4437 41.7479 33.5791 41.4517 33.7568 41.1851C33.9346 40.9142 34.1567 40.6984 34.4233 40.5376C34.6942 40.3768 35.0073 40.2964 35.3628 40.2964C35.7817 40.2964 36.1393 40.4001 36.4355 40.6074C36.736 40.8105 36.9814 41.0856 37.1719 41.4326C37.3665 41.7796 37.5083 42.1689 37.5972 42.6006C37.6903 43.028 37.7368 43.466 37.7368 43.9146ZM35.5659 43.8701C35.7437 43.8701 35.9277 43.8574 36.1182 43.832C36.3086 43.8024 36.4948 43.7601 36.6768 43.7051C36.6556 43.3496 36.6112 43.0322 36.5435 42.7529C36.48 42.4736 36.3932 42.2367 36.2832 42.042C36.1732 41.8431 36.0399 41.6929 35.8833 41.5913C35.731 41.4897 35.5532 41.439 35.3501 41.439C35.0708 41.439 34.8529 41.5321 34.6963 41.7183C34.5439 41.9002 34.436 42.1139 34.3726 42.3594C34.3133 42.6048 34.2837 42.8228 34.2837 43.0132C34.2837 43.3221 34.3895 43.5422 34.6011 43.6733C34.8127 43.8045 35.1343 43.8701 35.5659 43.8701ZM46.1602 40.0933L47.0806 41.0137L46.1602 41.9341L45.2397 41.0137L46.1602 40.0933ZM46.23 47.1265C46.9367 47.1265 47.4826 47.0101 47.8677 46.7773C48.257 46.5488 48.5278 46.2463 48.6802 45.8696C48.8368 45.4972 48.915 45.0973 48.915 44.6699C48.915 44.1663 48.8473 43.6691 48.7119 43.1782C48.5765 42.6873 48.4495 42.2853 48.3311 41.9722L49.4165 41.5342L49.8862 43.0195C49.9709 43.2904 50.1084 43.4956 50.2988 43.6353C50.4935 43.7749 50.7643 43.8447 51.1113 43.8447H51.3525V45H51.1367C50.8405 45 50.6141 44.9725 50.4575 44.9175C50.3052 44.8625 50.1613 44.7694 50.0259 44.6382C50.0216 45.3449 49.8862 45.9712 49.6196 46.5171C49.353 47.0672 48.9404 47.4967 48.3818 47.8057C47.8275 48.1146 47.1102 48.269 46.23 48.269C45.3159 48.269 44.5838 48.1019 44.0337 47.7676C43.4878 47.4333 43.0921 46.9868 42.8467 46.4282C42.6055 45.8739 42.4849 45.2645 42.4849 44.6001C42.4849 44.1515 42.5314 43.6924 42.6245 43.2227C42.7176 42.7487 42.8446 42.2874 43.0054 41.8389L44.0146 42.2451C43.8919 42.6344 43.7882 43.0343 43.7036 43.4448C43.619 43.8553 43.5767 44.2531 43.5767 44.6382C43.5767 45.0952 43.6571 45.512 43.8179 45.8887C43.9829 46.2653 44.258 46.5658 44.6431 46.79C45.0282 47.0143 45.5571 47.1265 46.23 47.1265ZM51.1113 43.8447H52.0698V45H51.1113V43.8447ZM52.6094 45H51.9111V43.8447H52.5967C53.1637 43.8447 53.5425 43.722 53.7329 43.4766C53.9276 43.2269 54.0249 42.8905 54.0249 42.4673C54.0249 42.2303 54.0016 41.9362 53.9551 41.585C53.9085 41.2337 53.8366 40.8846 53.7393 40.5376L54.8247 40.2456C54.9263 40.5799 54.9982 40.9396 55.0405 41.3247C55.0828 41.7098 55.104 42.0568 55.104 42.3657C55.104 42.8735 55.0342 43.3263 54.8945 43.7241C54.7591 44.1177 54.5116 44.4287 54.1519 44.6572C53.7922 44.8857 53.278 45 52.6094 45ZM53.8345 46.0093L54.7231 46.8916L53.8345 47.7866L52.9521 46.8916L53.8345 46.0093ZM51.7271 46.0093L52.6157 46.8916L51.7271 47.7866L50.8447 46.8916L51.7271 46.0093ZM59.4268 43.686C59.7441 43.5972 60.0256 43.4618 60.271 43.2798C60.5207 43.0936 60.7174 42.8249 60.8613 42.4736C61.0052 42.1182 61.0771 41.64 61.0771 41.0391V36.1958H62.1626V41.3755C62.1626 41.7817 62.1859 42.1393 62.2324 42.4482C62.279 42.7529 62.3509 43.009 62.4482 43.2163C62.5498 43.4237 62.6831 43.5802 62.8481 43.686C63.0174 43.7918 63.2227 43.8447 63.4639 43.8447H63.686V45H63.4448C63.0682 45 62.7487 44.9386 62.4863 44.8159C62.2282 44.6932 62.0166 44.5176 61.8516 44.2891C61.6908 44.0563 61.5638 43.777 61.4707 43.4512C61.2337 43.7982 60.9206 44.0881 60.5312 44.3208C60.1462 44.5493 59.6976 44.7207 59.1855 44.835C58.6735 44.945 58.1128 45 57.5034 45C57.3299 45 57.1522 44.9958 56.9702 44.9873C56.7882 44.9788 56.6042 44.9661 56.418 44.9492V43.8574C56.6803 43.8743 56.9025 43.8892 57.0845 43.9019C57.2664 43.9103 57.4484 43.9146 57.6304 43.9146C57.8039 43.9146 57.9541 43.9146 58.0811 43.9146C58.2122 43.9103 58.3201 43.8997 58.4048 43.8828C58.4048 43.8828 58.3836 43.758 58.3413 43.5083C58.3032 43.2586 58.2397 42.9116 58.1509 42.4673C58.062 42.0229 57.9414 41.5109 57.7891 40.9312C57.6367 40.3472 57.4484 39.7209 57.2241 39.0522C56.9998 38.3836 56.7332 37.7002 56.4243 37.002L57.4082 36.5449C57.7129 37.2643 57.9774 37.971 58.2017 38.665C58.4302 39.359 58.6227 40.0086 58.7793 40.6138C58.9359 41.2189 59.0607 41.7521 59.1538 42.2134C59.2511 42.6746 59.321 43.0365 59.3633 43.2988C59.4056 43.557 59.4268 43.686 59.4268 43.686ZM64.1494 45H63.4512V43.8447H64.1367C64.7038 43.8447 65.0825 43.722 65.2729 43.4766C65.4676 43.2269 65.5649 42.8905 65.5649 42.4673C65.5649 42.2303 65.5417 41.9362 65.4951 41.585C65.4486 41.2337 65.3766 40.8846 65.2793 40.5376L66.3647 40.2456C66.4663 40.5799 66.5382 40.9396 66.5806 41.3247C66.6229 41.7098 66.644 42.0568 66.644 42.3657C66.644 42.8735 66.5742 43.3263 66.4346 43.7241C66.2992 44.1177 66.0516 44.4287 65.6919 44.6572C65.3322 44.8857 64.818 45 64.1494 45ZM65.2476 37.4146L66.168 38.335L65.2476 39.2554L64.3271 38.335L65.2476 37.4146ZM69.4116 35.4658C69.4709 35.4954 69.5322 35.5103 69.5957 35.5103C69.6719 35.5103 69.7565 35.4785 69.8496 35.415C69.9427 35.3473 70.0697 35.2415 70.2305 35.0977L70.5542 34.8057L71.1318 35.3262L70.7764 35.6626C70.5521 35.8742 70.3553 36.0308 70.186 36.1323C70.021 36.2297 69.8538 36.2783 69.6846 36.2783C69.5238 36.2783 69.3333 36.2297 69.1133 36.1323L68.2944 35.7578C68.2352 35.7324 68.1802 35.7113 68.1294 35.6943C68.0786 35.6774 68.0299 35.6689 67.9834 35.6689C67.8903 35.6689 67.7845 35.707 67.666 35.7832C67.5475 35.8594 67.3888 35.9969 67.1899 36.1958L66.8281 36.5576L66.2505 36.0371L66.6187 35.6562C66.8937 35.3727 67.1265 35.1738 67.3169 35.0596C67.5116 34.9411 67.6956 34.8818 67.8691 34.8818C67.9834 34.8818 68.0977 34.9009 68.2119 34.939C68.3304 34.9771 68.4574 35.0278 68.5928 35.0913L69.4116 35.4658ZM69.3228 37.0845V44.9937H68.2373V37.0845H69.3228ZM84.6143 36.5894L85.4712 37.4463L84.6143 38.3032L83.7573 37.4463L84.6143 36.5894ZM85.6997 38.1953L86.5566 39.0522L85.6997 39.9092L84.8428 39.0522L85.6997 38.1953ZM83.5288 38.1953L84.3857 39.0522L83.5288 39.9092L82.6719 39.0522L83.5288 38.1953ZM78.1587 47.1265C78.8654 47.1265 79.4113 47.0101 79.7964 46.7773C80.1857 46.5488 80.4565 46.2463 80.6089 45.8696C80.7655 45.4972 80.8438 45.0973 80.8438 44.6699C80.8438 44.1663 80.776 43.6691 80.6406 43.1782C80.5052 42.6873 80.3783 42.2853 80.2598 41.9722L81.3452 41.5342L81.7261 42.7339C81.8446 43.1021 82.0223 43.3792 82.2593 43.5654C82.5005 43.7516 82.8158 43.8447 83.2051 43.8447C83.6494 43.8447 83.9689 43.7008 84.1636 43.4131C84.3582 43.1253 84.4556 42.755 84.4556 42.3022C84.4556 42.2303 84.4513 42.1562 84.4429 42.0801C84.4386 41.9997 84.4323 41.9002 84.4238 41.7817C84.4154 41.6632 84.4027 41.5109 84.3857 41.3247L85.4521 41.1914L85.5537 42.4863C85.5706 42.7148 85.6193 42.9328 85.6997 43.1401C85.7801 43.3475 85.8965 43.5168 86.0488 43.6479C86.2054 43.7791 86.4001 43.8447 86.6328 43.8447C86.8444 43.8447 87.0179 43.7812 87.1533 43.6543C87.293 43.5273 87.3966 43.3496 87.4644 43.1211C87.5363 42.8883 87.5723 42.6196 87.5723 42.3149C87.5723 42.2134 87.5701 42.1139 87.5659 42.0166C87.5617 41.915 87.5553 41.8008 87.5469 41.6738C87.5384 41.5426 87.5257 41.3797 87.5088 41.1851L88.5688 41.0581L88.6704 42.4863C88.6873 42.7572 88.7466 42.9941 88.8481 43.1973C88.9497 43.4004 89.0894 43.5591 89.2671 43.6733C89.4491 43.7876 89.6691 43.8447 89.9272 43.8447H90.105V45H89.9399C89.4956 45 89.1253 44.9196 88.8291 44.7588C88.5329 44.5938 88.3298 44.3483 88.2197 44.0225C88.042 44.3356 87.8368 44.5768 87.604 44.7461C87.3755 44.9154 87.0539 45 86.6392 45C86.2371 45 85.9049 44.9154 85.6426 44.7461C85.3844 44.5768 85.1771 44.3377 85.0205 44.0288C84.7835 44.3716 84.5042 44.6191 84.1826 44.7715C83.861 44.9238 83.5309 45 83.1924 45C82.9131 45 82.6698 44.9661 82.4624 44.8984C82.2593 44.8265 82.09 44.7397 81.9546 44.6382C81.9504 45.3449 81.8149 45.9712 81.5483 46.5171C81.2817 47.0672 80.8691 47.4967 80.3105 47.8057C79.7562 48.1146 79.0389 48.269 78.1587 48.269C77.2446 48.269 76.5125 48.1019 75.9624 47.7676C75.4165 47.4333 75.0208 46.9868 74.7754 46.4282C74.5342 45.8739 74.4136 45.2645 74.4136 44.6001C74.4136 44.1515 74.4601 43.6924 74.5532 43.2227C74.6463 42.7487 74.7733 42.2874 74.9341 41.8389L75.9434 42.2451C75.8206 42.6344 75.717 43.0343 75.6323 43.4448C75.5477 43.8553 75.5054 44.2531 75.5054 44.6382C75.5054 45.0952 75.5858 45.512 75.7466 45.8887C75.9116 46.2653 76.1867 46.5658 76.5718 46.79C76.9569 47.0143 77.4858 47.1265 78.1587 47.1265ZM93.8247 36.748L94.7451 37.6685L93.8247 38.5889L92.9043 37.6685L93.8247 36.748ZM99.106 43.8447V45H98.7378C98.1623 45 97.6883 44.9408 97.3159 44.8223C96.9478 44.7038 96.6663 44.5197 96.4717 44.27C96.277 44.0161 96.1501 43.6924 96.0908 43.2988C95.5322 43.6035 94.9715 43.8849 94.4087 44.1431C93.8459 44.4012 93.2767 44.6086 92.7012 44.7651C92.1257 44.9217 91.5353 45 90.9302 45H89.8828V43.8447H90.9492C91.6136 43.8447 92.2357 43.758 92.8154 43.5845C93.3994 43.4067 93.9771 43.1761 94.5483 42.8926C95.1239 42.609 95.7269 42.3022 96.3574 41.9722C96.1966 41.9129 96.0591 41.86 95.9448 41.8135C95.8348 41.7669 95.7163 41.7161 95.5894 41.6611C95.4624 41.6019 95.2952 41.5321 95.0879 41.4517C94.7874 41.3289 94.5229 41.2231 94.2944 41.1343C94.0659 41.0454 93.8691 40.9777 93.7041 40.9312C93.5391 40.8804 93.4015 40.855 93.2915 40.855C93.0334 40.855 92.7837 40.9312 92.5425 41.0835C92.3055 41.2316 92.1045 41.4115 91.9395 41.623L91.7681 41.8389L90.7969 41.3628L90.8921 41.2104C91.1714 40.7576 91.5163 40.3958 91.9268 40.125C92.3415 39.8499 92.7985 39.7124 93.2979 39.7124C93.5729 39.7124 93.8776 39.7716 94.2119 39.8901C94.5505 40.0044 94.9165 40.1567 95.3101 40.3472C95.6528 40.5122 95.9639 40.6561 96.2432 40.7788C96.5225 40.9015 96.7785 41.0031 97.0112 41.0835C97.2482 41.1639 97.4704 41.2253 97.6777 41.2676C97.8851 41.3099 98.084 41.3374 98.2744 41.3501V42.4482C98.0924 42.4652 97.8893 42.5054 97.665 42.5688C97.4408 42.6323 97.1911 42.7297 96.916 42.8608C96.9202 43.0936 96.9922 43.284 97.1318 43.4321C97.2715 43.576 97.4767 43.6818 97.7476 43.7495C98.0226 43.813 98.3612 43.8447 98.7632 43.8447H99.106ZM98.8457 43.8447H99.3535V45H98.8457V43.8447ZM100.058 47.4058L100.915 48.2627L100.058 49.1196L99.2012 48.2627L100.058 47.4058ZM101.144 45.7998L102 46.6567L101.144 47.5137L100.287 46.6567L101.144 45.7998ZM98.9727 45.7998L99.8296 46.6567L98.9727 47.5137L98.1157 46.6567L98.9727 45.7998ZM99.9121 45H99.2139V43.8447H99.8994C100.466 43.8447 100.845 43.722 101.036 43.4766C101.23 43.2269 101.328 42.8905 101.328 42.4673C101.328 42.2303 101.304 41.9362 101.258 41.585C101.211 41.2337 101.139 40.8846 101.042 40.5376L102.127 40.2456C102.229 40.5799 102.301 40.9396 102.343 41.3247C102.386 41.7098 102.407 42.0568 102.407 42.3657C102.407 42.8735 102.337 43.3263 102.197 43.7241C102.062 44.1177 101.814 44.4287 101.455 44.6572C101.095 44.8857 100.581 45 99.9121 45Z" fill="white"/>
</svg>
